<svg viewBox="0 0 512 512" xml:space="preserve" xmlns="http://www.w3.org/2000/svg" enable-background="new 0 0 512 512"><path d="M45.304 220.781c0 25.978 16.634 61.606 42.613 70.335v1.026c-19.304 8.521-24.643 51.954 1.026 67.562v1.026c-28.031 9.242-46.514 27.005-46.514 57.707 0 52.88 50.108 67.562 93.951 67.562 53.393 0 93.13-19.202 93.13-78.036 0-72.388-103.705-45.69-103.705-85.018 0-13.859 7.392-19.199 20.227-21.87 42.612-7.904 69.308-41.07 69.308-84.4 0-7.495-1.541-14.581-4.107-21.562a197.227 197.227 0 0 0 20.228-5.648v-51.853c-17.661 6.982-36.656 12.116-55.96 12.116-55.242-31.83-130.197 1.335-130.197 71.053zm90.049 168.188c17.457 0 42.304 3.08 42.304 25.668 0 22.385-20.021 27.005-38.709 27.005-17.763 0-44.46-2.772-44.46-25.875.102-22.898 22.691-26.798 40.865-26.798zM132.067 256c-22.589 0-32.138-13.347-32.138-34.704 0-50.62 62.633-50.107 62.633-.515 0 20.844-8.213 35.219-30.495 35.219zm337.504 50.824v50.314c-13.657 7.493-31.316 10.062-46.721 10.062-54.932 0-61.4-43.332-61.4-87.993v-90.051h.513v-1.025c-7.188 0-7.494-1.645-24.642 1.025v-48.771h24.642c0-22.897.31-31.831-1.54-42.303h58.221c-2.055 14.17-1.541 28.236-1.541 42.303h52.365v48.771s-19.818-1.025-52.365-1.025v93.538c0 15.198 3.388 33.681 22.384 33.681 10.061 0 21.868-2.875 30.084-8.526zM319.66 63.685c0 19.201-14.888 37.169-34.704 37.169-20.331 0-35.425-17.66-35.425-37.169 0-19.817 14.888-37.684 35.425-37.684 20.33 0 34.704 18.482 34.704 37.684zm-6.366 76.495c-1.849 14.99-1.642 205.149 0 223.633h-56.987c1.643-18.584 1.848-208.437 0-223.633h56.987z" fill="#ffffff" class="fill-f05033"></path></svg>